<svg width="25" height="24" viewBox="0 0 25 24" fill="none" xmlns="http://www.w3.org/2000/svg">
<g id="Frame">
<path id="Vector" d="M19.7 3.20001H5.3C4.416 3.20001 3.7 3.91601 3.7 4.80001V19.2C3.7 20.084 4.416 20.8 5.3 20.8H13.3V13.6H10.9V11.2H13.3V9.91121C13.3 7.47121 14.4888 6.40001 16.5168 6.40001C17.488 6.40001 18.0016 6.47201 18.2448 6.50481V8.80001H16.8616C16.0008 8.80001 15.7 9.25441 15.7 10.1744V11.2H18.2232L17.8808 13.6H15.7V20.8H19.7C20.584 20.8 21.3 20.084 21.3 19.2V4.80001C21.3 3.91601 20.5832 3.20001 19.7 3.20001Z" fill="black"/>
</g>
</svg>
