<svg width="25" height="24" viewBox="0 0 25 24" fill="none" xmlns="http://www.w3.org/2000/svg">
<g id="Instagram">
<path id="Subtract" fill-rule="evenodd" clip-rule="evenodd" d="M0.5 12C0.5 5.37258 5.87258 0 12.5 0C19.1274 0 24.5 5.37258 24.5 12C24.5 18.6274 19.1274 24 12.5 24C5.87258 24 0.5 18.6274 0.5 12ZM12.5 5C10.5988 5 10.3608 5.00793 9.61413 5.042C8.86887 5.07607 8.35973 5.1946 7.91453 5.36773C7.44787 5.5432 7.0246 5.81853 6.6746 6.17507C6.31864 6.52466 6.04313 6.94763 5.86727 7.41453C5.69507 7.85973 5.57607 8.36933 5.542 9.1146C5.5084 9.8608 5.5 10.0983 5.5 12C5.5 13.9017 5.50793 14.1392 5.542 14.8859C5.57607 15.6311 5.6946 16.1403 5.86773 16.5855C6.0432 17.0521 6.31853 17.4754 6.67507 17.8254C7.02467 18.1814 7.44764 18.4569 7.91453 18.6327C8.35973 18.8054 8.86887 18.9239 9.61413 18.958C10.3608 18.9921 10.5988 19 12.5 19C14.4012 19 14.6392 18.9921 15.3859 18.958C16.1311 18.9239 16.6403 18.8054 17.0855 18.6323C17.5521 18.4568 17.9754 18.1815 18.3254 17.8249C18.6814 17.4753 18.9569 17.0524 19.1327 16.5855C19.3054 16.1403 19.4239 15.6311 19.458 14.8859C19.4921 14.1392 19.5 13.9012 19.5 12C19.5 10.0988 19.4921 9.8608 19.458 9.11413C19.4239 8.36887 19.3054 7.85973 19.1323 7.41453C18.9565 6.94743 18.681 6.52428 18.3249 6.1746C17.9753 5.81864 17.5524 5.54313 17.0855 5.36727C16.6403 5.19507 16.1307 5.07607 15.3854 5.042C14.6392 5.0084 14.4017 5 12.5 5ZM12.5 6.2614C14.369 6.2614 14.5907 6.2684 15.3289 6.302C16.0112 6.33327 16.3817 6.44667 16.6286 6.54327C16.9553 6.66973 17.1886 6.82187 17.4336 7.0664C17.6786 7.3114 17.8303 7.54473 17.9567 7.8714C18.0529 8.11827 18.1667 8.4888 18.198 9.17107C18.2316 9.90933 18.2386 10.131 18.2386 12C18.2386 13.869 18.2316 14.0907 18.198 14.8289C18.1667 15.5112 18.0533 15.8817 17.9567 16.1286C17.8447 16.4327 17.6659 16.7077 17.4336 16.9336C17.2078 17.166 16.9327 17.3448 16.6286 17.4567C16.3817 17.5529 16.0112 17.6667 15.3289 17.698C14.5907 17.7316 14.3695 17.7386 12.5 17.7386C10.6305 17.7386 10.4093 17.7316 9.67107 17.698C8.9888 17.6667 8.61827 17.5533 8.3714 17.4567C8.06735 17.3447 7.79227 17.1659 7.5664 16.9336C7.33408 16.7077 7.15533 16.4326 7.04327 16.1286C6.94713 15.8817 6.83327 15.5112 6.802 14.8289C6.7684 14.0907 6.7614 13.869 6.7614 12C6.7614 10.131 6.7684 9.90933 6.802 9.17107C6.83327 8.4888 6.94667 8.11827 7.04327 7.8714C7.16973 7.54473 7.32187 7.3114 7.5664 7.0664C7.79224 6.83402 8.06732 6.65526 8.3714 6.54327C8.61827 6.44713 8.9888 6.33327 9.67107 6.302C10.4093 6.2684 10.631 6.2614 12.5 6.2614ZM11.6245 14.0797C11.8996 14.1955 12.1944 14.2551 12.492 14.2551C13.0933 14.2551 13.6699 14.0124 14.095 13.5804C14.5201 13.1484 14.7589 12.5625 14.7589 11.9516C14.7589 11.3407 14.5201 10.7548 14.095 10.3228C13.6699 9.89082 13.0933 9.64814 12.492 9.64814C12.1944 9.64814 11.8996 9.70772 11.6245 9.82348C11.3495 9.93924 11.0996 10.1089 10.8891 10.3228C10.6786 10.5367 10.5116 10.7906 10.3977 11.0701C10.2838 11.3496 10.2252 11.6491 10.2252 11.9516C10.2252 12.2541 10.2838 12.5536 10.3977 12.8331C10.5116 13.1126 10.6786 13.3665 10.8891 13.5804C11.0996 13.7943 11.3495 13.964 11.6245 14.0797ZM10.0228 9.44251C10.6777 8.77705 11.5659 8.40321 12.492 8.40321C13.4182 8.40321 14.3064 8.77705 14.9613 9.44251C15.6162 10.108 15.9841 11.0105 15.9841 11.9516C15.9841 12.8927 15.6162 13.7952 14.9613 14.4607C14.3064 15.1262 13.4182 15.5 12.492 15.5C11.5659 15.5 10.6777 15.1262 10.0228 14.4607C9.36791 13.7952 9 12.8927 9 11.9516C9 11.0105 9.36791 10.108 10.0228 9.44251ZM16.7582 8.93188C16.913 8.77458 17 8.56123 17 8.33877C17 8.11632 16.913 7.90297 16.7582 7.74567C16.6034 7.58837 16.3935 7.5 16.1745 7.5C15.9556 7.5 15.7457 7.58837 15.5909 7.74567C15.4361 7.90297 15.3491 8.11632 15.3491 8.33877C15.3491 8.56123 15.4361 8.77458 15.5909 8.93188C15.7457 9.08918 15.9556 9.17755 16.1745 9.17755C16.3935 9.17755 16.6034 9.08918 16.7582 8.93188Z" fill="black"/>
</g>
</svg>
