<?xml version="1.0" encoding="utf-8"?>
<!-- Generator: Adobe Illustrator 27.6.1, SVG Export Plug-In . SVG Version: 6.00 Build 0)  -->
<svg version="1.1" id="Layer_1" xmlns="http://www.w3.org/2000/svg" xmlns:xlink="http://www.w3.org/1999/xlink" x="0px" y="0px"
	 viewBox="0 0 764 194" style="enable-background:new 0 0 764 194;" xml:space="preserve">
<g>
	<path d="M0,184.81V10.17h77.05c11.74,0,21.77,1.71,30.08,5.14c8.32,3.42,14.47,8.07,18.47,13.94c3.99,5.87,6.81,11.62,8.44,17.24
		c1.63,5.63,2.45,11.54,2.45,17.73c0,6.2-0.82,12.11-2.45,17.73c-1.63,5.63-4.44,11.29-8.44,17c-4,5.71-10.15,10.27-18.47,13.7
		c-8.32,3.42-18.34,5.14-30.08,5.14H30.57v67.02H0z M30.57,35.12v57.72h44.76c8.15,0,15.29-2.28,21.4-6.85
		c6.12-4.56,9.17-11.9,9.17-22.01c0-19.24-10.03-28.86-30.08-28.86H30.57z"/>
	<path d="M159.23,184.81V58.35h26.17v24.46h0.49c1.63-7.01,6.15-13.41,13.57-19.2c7.42-5.79,15.2-8.68,23.36-8.68
		c1.63,0,5.14,0.24,10.52,0.73v26.9c-4.4-0.81-8.4-1.22-11.98-1.22c-9.78,0-17.94,3.83-24.46,11.5c-6.52,7.67-9.78,18.26-9.78,31.8
		v60.17H159.23z"/>
	<path d="M246.05,36.59V10.17h27.88v26.41H246.05z M246.05,184.81V58.35h27.88v126.45H246.05z"/>
	<path d="M337.77,184.81L291.79,58.35h30.33l32.04,97.1h0.49l30.82-97.1h28.86l-45.25,126.45H337.77z"/>
	<path d="M537.11,91.62v65.06c0,3.42,0.49,5.87,1.47,7.34c0.98,1.47,2.69,2.2,5.14,2.2h2.94c0.65,0,1.96-0.16,3.91-0.49v19.32
		c-6.03,2.12-11.9,3.18-17.61,3.18c-12.39,0-19.57-5.14-21.52-15.41c-5.22,5.06-11.82,8.89-19.81,11.5
		c-7.99,2.61-15.98,3.91-23.97,3.91c-12.23,0-22.5-3.22-30.82-9.66c-8.32-6.44-12.47-15.53-12.47-27.27c0-7.5,1.35-13.82,4.04-18.95
		c2.69-5.14,6.64-9.05,11.86-11.74c5.22-2.69,10.19-4.61,14.92-5.75c4.73-1.14,10.68-2.12,17.85-2.94c2.94-0.65,6.76-1.22,11.5-1.71
		c4.73-0.49,8.35-0.98,10.88-1.47c2.53-0.49,5.14-1.26,7.83-2.32c2.69-1.06,4.65-2.57,5.87-4.53c1.22-1.96,1.83-4.56,1.83-7.83
		c0-11.41-8.72-17.12-26.17-17.12c-8.16,0-14.68,1.67-19.57,5.01c-4.89,3.34-7.67,8.36-8.32,15.04H429
		c0.98-15,6.81-25.76,17.49-32.28c10.68-6.52,24.01-9.78,39.99-9.78c13.86,0,25.76,3.02,35.71,9.05
		C532.13,70.01,537.11,79.23,537.11,91.62z M509.23,142.25v-20.79c-2.61,1.63-5.63,2.9-9.05,3.79c-3.42,0.9-7.95,1.67-13.57,2.32
		c-5.63,0.65-9.5,1.14-11.62,1.47c-7.01,1.14-12.56,3.26-16.63,6.36c-4.08,3.1-6.12,7.99-6.12,14.68c0,5.71,2.69,9.83,8.07,12.35
		c5.38,2.53,11.25,3.79,17.61,3.79c7.5,0,14.59-2,21.28-5.99C505.88,156.23,509.23,150.24,509.23,142.25z"/>
	<path d="M554.48,79.15V58.35h21.03V20.44h27.88v37.91h25.19v20.79h-25.19v67.51c0,6.52,0.77,11.05,2.32,13.57
		c1.55,2.53,5.26,3.79,11.13,3.79c5.22,0,9.13-0.32,11.74-0.98v21.52c-8.16,0.98-14.19,1.47-18.1,1.47
		c-13.7,0-22.87-2.48-27.52-7.46c-4.65-4.97-7.14-13.25-7.46-24.82v-74.6H554.48z"/>
	<path d="M763.35,128.8h-92.94c0,10.6,2.89,19.49,8.68,26.66c5.79,7.18,14.22,10.76,25.32,10.76c15.65,0,25.93-7.01,30.82-21.03
		h26.42c-2.94,13.54-9.66,24.09-20.18,31.67c-10.52,7.58-22.87,11.37-37.05,11.37c-19.57,0-34.77-6.07-45.62-18.22
		c-10.85-12.14-16.26-28.25-16.26-48.31c0-18.59,5.63-34.36,16.88-47.33c11.25-12.96,26.01-19.44,44.27-19.44
		c19.4,0,34.81,7.42,46.23,22.26C761.31,92.03,765.8,109.23,763.35,128.8z M670.41,110.45h65.06c-0.65-9.3-3.83-17.2-9.54-23.73
		c-5.71-6.52-13.13-9.78-22.26-9.78c-9.46,0-17.29,3.18-23.48,9.54C673.99,92.84,670.73,100.83,670.41,110.45z M692.42,40.74
		l22.01-34.98h33.02l-34.73,34.98H692.42z"/>
</g>
</svg>
